# xmcd
#
# Track frame offsets: 
#        150
#        11645
#        26180
#        39485
#        60215
#        74487
#        88474
#        101300
#        116023
#        129528
#        143072
#        159210
#        174287
#        187853
#        199609
#        212402
#        226740
#        240019
#        254490
#        268251
#        282999
#        295021
#        314907
#        327857
#        342062
#
# Disc length: 4749 seconds
#
# Revision: 0
# Processed by: cddbd v1.5.2PL0 Copyright (c) Steve Scherf et al.
# Submitted via: ExactAudioCopy v0.95b3
#
DISCID=5f128b19
DTITLE=Benny Goodman and His Orchestra   - The Essential BG - Disc 4 - U
DTITLE=ndercurrent Blues
DYEAR=1900
DGENRE=
TTITLE0=Hendeson Stomp
TTITLE1=Taking A Chance On Love
TTITLE2=Frenesi
TTITLE3=Superman
TTITLE4=Let The Door Knob Hitcha
TTITLE5=Scarecrow
TTITLE6=Solo Flight
TTITLE7=Fiesta In Blue
TTITLE8=Air Mail Special
TTITLE9=When The Sun Comes Out
TTITLE10=Tuesday At Ten
TTITLE11=The Count
TTITLE12=Pound Ridge
TTITLE13=The Earl
TTITLE14=Caprice XXIV Paganini
TTITLE15=My Old Flame
TTITLE16=Clarinet A La King
TTITLE17=Jersey Bounce
TTITLE18=Idaho
TTITLE19=Why Don't You Do Right?
TTITLE20=Mission To Moscow
TTITLE21=All The Cats Join In
TTITLE22=Clarinade
TTITLE23=Lonely Moments
TTITLE24=Undercurrent Blues
EXTD=
EXTT0=
EXTT1=
EXTT2=
EXTT3=
EXTT4=
EXTT5=
EXTT6=
EXTT7=
EXTT8=
EXTT9=
EXTT10=
EXTT11=
EXTT12=
EXTT13=
EXTT14=
EXTT15=
EXTT16=
EXTT17=
EXTT18=
EXTT19=
EXTT20=
EXTT21=
EXTT22=
EXTT23=
EXTT24=
PLAYORDER=
